<mxfile host="app.diagrams.net" modified="2023-09-28T07:07:45.241Z" agent="Mozilla/5.0 (Windows NT 10.0; Win64; x64) AppleWebKit/537.36 (KHTML, like Gecko) Chrome/107.0.0.0 Safari/537.36" version="21.8.2" etag="0wEC5c-On177GgQ-2rn6" type="github">
  <diagram name="第 1 页" id="6KOhNs0r4vIA-6vlUEg3">
    <mxGraphModel>
      <root>
        <mxCell id="0" />
        <mxCell id="1" parent="0" />
      </root>
    </mxGraphModel>
  </diagram>
</mxfile>
